# Blender 3.4.1
# www.blender.org
mtllib tree.mtl
o tree
v 1.234710 0.000000 -1.032400
v 1.335190 0.971550 -1.132890
v 1.335190 0.971550 -1.482510
v 1.234710 0.000000 -1.582990
v 1.785290 0.000000 -1.032400
v 1.684810 0.971550 -1.132890
v 1.785290 0.000000 -1.582990
v 1.684810 0.971550 -1.482510
v 2.098900 0.971550 -2.327700
v 0.921100 0.971550 -2.327700
v 0.921100 0.971550 -0.287694
v 0.332200 0.971550 -1.307700
v 0.755000 1.591550 0.000000
v 0.000000 1.591550 -1.307700
v 2.098900 0.971550 -0.287694
v 2.265000 1.591550 0.000000
v 2.687800 0.971550 -1.307700
v 2.265000 1.591550 -2.615400
v 3.020000 1.591550 -1.307700
v 2.091350 3.771550 -2.314630
v 2.672700 3.771550 -1.307700
v 0.755000 1.591550 -2.615400
v 0.928650 3.771550 -2.314630
v 0.347300 3.771550 -1.307700
v 1.510000 4.601550 -1.307700
v 0.928650 3.771550 -0.300771
v 2.091350 3.771550 -0.300771
vn -0.9947 0.1029 -0.0000
vn -0.0000 0.1029 0.9947
vn 0.9947 0.1029 -0.0000
vn -0.0000 -1.0000 -0.0000
vn -0.0000 0.1029 -0.9947
vn -0.7856 -0.4209 0.4535
vn -0.0000 -0.4209 0.9071
vn 0.7856 -0.4209 -0.4535
vn 0.8579 0.1367 -0.4953
vn -0.0000 0.1367 -0.9906
vn -0.8579 0.1367 -0.4953
vn -0.5508 0.7716 -0.3180
vn -0.5508 0.7716 0.3180
vn -0.0000 0.7716 0.6361
vn 0.5508 0.7716 0.3180
vn 0.5508 0.7716 -0.3180
vn -0.0000 0.7716 -0.6361
vn 0.8579 0.1367 0.4953
vn 0.7856 -0.4209 0.4535
vn -0.0000 0.1367 0.9906
vn -0.8579 0.1367 0.4953
vn -0.7856 -0.4209 -0.4535
vn -0.0000 -0.4209 -0.9071
vn 0.7856 -0.4209 -0.4536
vn -0.7856 -0.4209 -0.4536
vt -0.469275 0.057737
vt -0.561230 0.469275
vt 0.561230 0.048277
vt -0.606904 0.514949
vt -0.514949 0.501706
vt 0.606904 0.492246
vt -0.606904 0.673868
vt -0.673868 0.501706
vt -0.606904 0.369946
vt -0.561230 -0.074024
vt -0.719542 0.057737
vt -0.561230 0.719542
vt 0.811497 0.048277
vt 0.469275 -0.083484
vt -0.811497 0.469275
vt -0.765823 0.514949
vt 0.765823 0.492246
vt 0.514949 0.360486
vt 0.719542 -0.083484
vt -0.811497 0.719542
vt -0.811497 -0.074024
vt -0.765823 0.673868
vt 0.673868 0.360486
vt -0.765823 0.369946
vt -0.954045 1.058050
vt 0.439273 0.971033
vt -0.954045 0.845935
vt -0.418682 1.058050
vt -1.125640 0.470642
vt -0.418682 0.845935
vt -0.418682 0.130770
vt 0.096091 0.220447
vt 0.418682 0.345545
vt -0.151000 0.594408
vt -0.439273 0.220447
vt -0.590273 0.470642
vt 0.343182 0.656225
vt 0.171591 0.531128
vt 0.343182 0.716643
vt 0.171591 0.757263
vt -0.514773 0.531128
vt -0.514773 0.676023
vt -0.514773 0.757263
vt -0.514773 0.781323
vt -0.954045 0.130770
vt 0.954045 0.345545
vt 0.590273 0.720838
vt 0.514773 0.594783
vt 1.029550 0.716643
vt 1.029550 0.656225
vt 0.514773 1.031520
vt -1.221730 0.594408
vt 1.125640 0.720838
vt -0.096091 0.971033
vt 0.514773 1.281710
vt -1.029550 1.156620
vt 0.514773 0.513544
vt -1.029550 0.554164
vt -0.171591 0.513544
vt -0.171591 1.281710
vt 1.201140 0.594783
vt 1.201140 1.031520
vt 0.435841 0.049236
vt -0.950614 0.278571
vt 0.435841 1.513840
vt -0.950614 1.554460
vt 1.122200 0.507906
vt -0.092659 0.049236
vt -0.092659 1.513840
vt 1.122200 1.595080
vt -0.343182 0.554164
vt -1.201140 0.781323
vt -1.201140 0.676023
vt -0.343182 1.156620
vt -1.122200 0.966577
vt -0.422114 0.278571
vt -0.422114 1.554460
vt -1.122200 1.676320
vt -0.593705 1.676320
vt -0.593705 0.966577
vt -0.435841 1.425250
vt -0.435841 1.757560
vt -0.857955 1.559720
vt -0.171591 2.018390
vt 0.686364 1.789060
vt 0.857955 1.101050
vt 0.171591 0.642379
vt -0.686364 0.871714
vt 0.092659 1.425250
vt 0.422114 1.195910
vt 0.092659 1.757560
vt 0.422114 1.716940
vt 0.950614 1.195910
vt 0.593705 0.507906
vt 0.593705 1.595080
vt 0.950614 1.716940
s 0
usemtl Wood
f 2/5/1 4/11/1 1/1/1
f 6/17/2 1/3/2 5/13/2
f 7/19/3 6/18/3 5/14/3
f 4/12/4 5/15/4 1/2/4
f 3/9/5 7/21/5 4/10/5
f 2/5/1 3/8/1 4/11/1
f 6/17/2 2/6/2 1/3/2
f 7/19/3 8/23/3 6/18/3
f 4/12/4 7/20/4 5/15/4
f 3/9/5 8/24/5 7/21/5
usemtl Green_leafs
f 3/7/4 9/25/4 8/22/4
f 3/7/4 10/28/4 9/25/4
f 11/31/4 10/28/4 3/7/4
f 10/28/4 11/31/4 12/34/4
f 11/32/6 14/41/6 12/35/6
f 11/33/7 16/50/7 13/37/7
f 11/31/4 2/4/4 15/45/4
f 2/4/4 11/31/4 3/7/4
f 15/45/4 2/4/4 6/16/4
f 15/45/4 6/16/4 9/25/4
f 8/22/4 9/25/4 6/16/4
f 15/45/4 9/25/4 17/52/4
f 19/60/8 9/26/8 18/55/8
f 18/57/9 21/69/9 19/59/9
f 23/77/10 18/58/10 22/71/10
f 23/78/11 14/42/11 24/79/11
f 24/80/12 25/83/12 23/75/12
f 26/89/13 25/84/13 24/81/13
f 27/93/14 25/85/14 26/90/14
f 21/67/15 25/86/15 27/94/15
f 20/63/16 25/87/16 21/68/16
f 25/88/17 20/64/17 23/76/17
f 19/61/18 27/95/18 16/48/18
f 19/62/19 15/47/19 17/53/19
f 27/96/20 13/39/20 16/49/20
f 24/82/21 13/40/21 26/91/21
f 10/29/22 14/44/22 22/72/22
f 9/27/23 22/74/23 18/56/23
f 11/32/6 13/38/6 14/41/6
f 11/33/7 15/46/7 16/50/7
f 19/60/24 17/54/24 9/26/24
f 18/57/9 20/65/9 21/69/9
f 23/77/10 20/66/10 18/58/10
f 23/78/11 22/73/11 14/42/11
f 19/61/18 21/70/18 27/95/18
f 19/62/19 16/51/19 15/47/19
f 27/96/20 26/92/20 13/39/20
f 24/82/21 14/43/21 13/40/21
f 10/29/25 12/36/25 14/44/25
f 9/27/23 10/30/23 22/74/23
